<svg width="105" height="24" viewBox="0 0 105 24" fill="none" xmlns="http://www.w3.org/2000/svg">
<rect x="5.24316" width="8.08797" height="4.74725" rx="2.37363" fill="#333333" fill-opacity="0.5"/>
<path fill-rule="evenodd" clip-rule="evenodd" d="M36.4486 2.26367C36.4486 1.1591 37.344 0.263672 38.4486 0.263672H42.4608C43.5654 0.263672 44.4608 1.1591 44.4608 2.26367V13.4999L48.8124 13.9409C49.1962 13.9798 49.2905 14.2366 49.023 14.5146C48.7555 14.7925 48.2275 14.9863 47.8437 14.9474L44.4608 14.6046V21.9245C44.4608 23.029 43.5654 23.9245 42.4608 23.9245H38.4486C37.344 23.9245 36.4486 23.029 36.4486 21.9245V13.7926L13.2507 11.4416V22.0072C13.2507 23.1118 12.3553 23.9999 11.2507 23.9999H7.16278C6.05821 23.9999 5.16278 23.1045 5.16278 21.9999V10.6219L0.812004 10.1809C0.428215 10.142 0.333933 9.88519 0.601422 9.60724C0.86891 9.32929 1.39687 9.1355 1.78066 9.17439L5.16278 9.51716V7.77055C5.16278 6.60258 6.15866 5.68036 7.32532 5.73571C8.61345 5.79682 10.257 5.84243 11.6176 5.77549C12.5717 5.72855 13.2507 6.15386 13.2507 7.1091V10.3368L36.4486 12.6879V2.26367Z" fill="#333333"/>
<path d="M96.1787 20.4944V13.7744H98.3298V16.2656H101.906V13.7744H104.057V20.4944H101.906V17.72H98.3298V20.4944H96.1787Z" fill="black"/>
<path d="M91.2758 20.6389C90.3385 20.6389 89.5113 20.4965 88.7943 20.2117C88.0773 19.9269 87.5179 19.5237 87.1162 19.0021C86.7145 18.4805 86.5137 17.8645 86.5137 17.1541C86.5137 16.6357 86.6303 16.1621 86.8635 15.7333C87.1011 15.3013 87.4337 14.9285 87.8613 14.6149C88.2933 14.3013 88.8008 14.0597 89.3839 13.8901C89.9713 13.7173 90.6127 13.6309 91.3082 13.6309C92.0641 13.6309 92.699 13.7013 93.213 13.8421C93.727 13.9829 94.1913 14.1829 94.606 14.4421L93.5305 15.7525C93.28 15.5605 92.9776 15.4181 92.6234 15.3253C92.2692 15.2293 91.8783 15.1813 91.4507 15.1813C91.0274 15.1813 90.6495 15.2277 90.3169 15.3205C89.9886 15.4101 89.7078 15.5397 89.4746 15.7093C89.2457 15.8789 89.0707 16.0837 88.9498 16.3237C88.8288 16.5637 88.7684 16.8325 88.7684 17.1301C88.7684 17.5397 88.8764 17.8901 89.0923 18.1813C89.3126 18.4725 89.6258 18.6965 90.0318 18.8533C90.4378 19.0069 90.9237 19.0837 91.4896 19.0837C91.8956 19.0837 92.2973 19.0389 92.6947 18.9493C93.0964 18.8565 93.4765 18.7077 93.835 18.5029L94.8198 19.8421C94.4008 20.0821 93.8998 20.2757 93.3167 20.4229C92.7336 20.5669 92.0533 20.6389 91.2758 20.6389Z" fill="black"/>
<path d="M76.9375 20.4944V13.7744H79.0626L82.7946 17.8928V13.7744H84.8808V20.4944H82.7557L79.0173 16.3184V20.4944H76.9375Z" fill="black"/>
<path d="M70.9118 20.6384C70.0609 20.6384 69.3461 20.5136 68.7673 20.264C68.1928 20.0144 67.7587 19.672 67.465 19.2368C67.1713 18.7984 67.0244 18.296 67.0244 17.7296V13.7744H69.1755V17.7872C69.1755 18.2448 69.3288 18.5856 69.6355 18.8096C69.9421 19.0304 70.3676 19.1408 70.9118 19.1408C71.4518 19.1408 71.8729 19.0304 72.1753 18.8096C72.4819 18.5856 72.6353 18.2448 72.6353 17.7872V13.7744H74.7928V17.7296C74.7928 18.2928 74.6459 18.7936 74.3522 19.232C74.0585 19.6672 73.6222 20.0112 73.0435 20.264C72.469 20.5136 71.7584 20.6384 70.9118 20.6384Z" fill="black"/>
<path d="M57 20.4944V13.7744H59.151V16.2656H62.7275V13.7744H64.8785V20.4944H62.7275V17.72H59.151V20.4944H57Z" fill="black"/>
<path d="M95.6914 10.72V4H97.0033V10.72H95.6914ZM96.4435 7.9744V7.264H100.134C100.869 7.264 101.446 7.152 101.866 6.928C102.286 6.6976 102.496 6.384 102.496 5.9872H103.913C103.913 6.5888 103.569 7.072 102.881 7.4368C102.193 7.7952 101.277 7.9744 100.134 7.9744H96.4435ZM102.496 5.9872C102.496 5.5904 102.286 5.28 101.866 5.056C101.446 4.8256 100.869 4.7104 100.134 4.7104H96.4435V4H100.134C101.277 4 102.193 4.1792 102.881 4.5376C103.569 4.896 103.913 5.3792 103.913 5.9872H102.496ZM102.566 10.72L99.5396 7.8016L100.729 7.4944L104 10.6432V10.72H102.566Z" fill="black"/>
<path d="M85.625 10.72V4H86.9369V10.72H85.625ZM86.3072 10.72V10.0192H93.3389V10.72H86.3072ZM86.3072 7.6672V6.9664H92.989V7.6672H86.3072ZM86.3072 4.7008V4H93.3389V4.7008H86.3072Z" fill="black"/>
<path d="M81.4359 10.72L73.4072 4.2016V4H74.7191L82.7478 10.5184V10.72H81.4359ZM73.4072 10.72V4H74.7191V10.72H73.4072ZM81.4359 10.72V4H82.7478V10.72H81.4359Z" fill="black"/>
<path d="M69.2182 10.72L61.1895 4.2016V4H62.5013L70.53 10.5184V10.72H69.2182ZM61.1895 10.72V4H62.5013V10.72H61.1895ZM69.2182 10.72V4H70.53V10.72H69.2182Z" fill="black"/>
<path d="M57 10.72V4H58.3119V10.72H57Z" fill="black"/>
</svg>
