<svg width="12" height="16" viewBox="0 0 12 16" fill="none" xmlns="http://www.w3.org/2000/svg">
<path d="M6.15427 9.70449C5.46696 9.70449 4.88275 9.47116 4.40163 9.00449C3.92051 8.53783 3.67995 7.97116 3.67995 7.30449V2.50449C3.67995 1.83783 3.92051 1.27116 4.40163 0.804492C4.88275 0.337825 5.46696 0.104492 6.15427 0.104492C6.84158 0.104492 7.4258 0.337825 7.90692 0.804492C8.38803 1.27116 8.62859 1.83783 8.62859 2.50449V7.30449C8.62859 7.97116 8.38803 8.53783 7.90692 9.00449C7.4258 9.47116 6.84158 9.70449 6.15427 9.70449ZM5.3295 15.3045V12.8445C3.89989 12.6578 2.71772 12.0378 1.78297 10.9845C0.848231 9.93116 0.380859 8.70449 0.380859 7.30449H2.03041C2.03041 8.41116 2.43248 9.35449 3.23664 10.1345C4.04079 10.9145 5.01334 11.3045 6.15427 11.3045C7.29521 11.3045 8.26776 10.9145 9.07191 10.1345C9.87606 9.35449 10.2781 8.41116 10.2781 7.30449H11.9277C11.9277 8.70449 11.4603 9.93116 10.5256 10.9845C9.59083 12.0378 8.40865 12.6578 6.97905 12.8445V15.3045H5.3295Z" fill="#939393"/>
</svg>
